<svg width="100%" viewBox="0 0 680 473.31" xmlns="http://www.w3.org/2000/svg">
<defs>
<marker id="arrow" viewBox="0 0 10 10" refX="8" refY="5" markerWidth="6" markerHeight="6" orient="auto-start-reverse">
<path d="M2 1L8 5L2 9" fill="none" stroke="context-stroke" stroke-width="1.5" stroke-linecap="round" stroke-linejoin="round"/>
</marker>
<symbol id="i-gameap" viewBox="0 0 1024 1024">
<g transform="translate(0,1024) scale(1,-1)">
<path fill="currentColor" d="M615 995.6c-13.2-15.4-26-29.4-28.6-31.2-3.8-2.6-9.4-2.6-41-0.6-39 2.4-54 1.8-93.8-3.2-13.8-1.6-27.4-2.6-30-2-2.6 0.8-17.2 13.8-32.4 29.4-15.4 15.4-28.6 28-29.6 28-2.6 0-116.2-49.8-118-51.6-1-1-0.2-18.8 1.4-40 2.6-33.2 2.6-39.2 0.2-44-1.6-3-11-12-21-20.2-23.4-19-53-49.8-71.6-75.2-8.2-11-16.8-21.2-19.2-22.4-3.4-2-14.4-2.2-44.4-1.4l-40 1.2-23.6-61.6c-12.8-33.8-22.8-62-21.8-62.6s14.4-12.2 30-25.8c17-14.6 28.8-26.6 29.6-29.4 0.6-2.6 0.2-20.2-1-38.8-2.4-36.8-1.8-55.6 3.2-93.4 1.8-13.4 2.6-26.4 2-29s-13.8-17.4-29.4-32.6c-15.4-15.4-28-28.6-28-29.6 0-2.6 49.8-116.2 51.6-118 1-1 18.8-0.2 39.8 1.4 24 1.8 40.2 2.4 43 1.2 2.6-1 12.2-10.8 21-21.6 20.6-25 49.8-53 75.6-72 11-8.2 21.2-16.8 22.4-19.2 2-3.4 2.2-14.4 1.4-44.4l-1.2-40 61.6-23.6c33.8-12.8 62-22.8 62.6-21.8s12.2 14.4 25.8 30c14.6 17 26.6 28.8 29.4 29.6 2.6 0.6 20.2 0.2 38.8-1 36.8-2.4 55.6-1.8 93.4 3.2 13.4 1.8 26.4 2.6 29 2s17.4-13.8 32.6-29.4c15.4-15.4 28.6-28 29.6-28 2.6 0 116.2 49.8 118 51.6 1 1 0.2 18.8-1.4 39.8-1.8 24-2.4 40.2-1.2 43 1 2.6 10.8 12.2 21.6 21 25 20.6 53 49.8 72 75.6 8.2 11 16.8 21.2 19.2 22.4 3.4 2 14.4 2.2 44.4 1.4l40-1.2 23.6 61.6c12.8 33.8 22.8 62 21.8 62.6s-14.4 12.2-30 25.8c-17 14.6-28.8 26.6-29.6 29.4-0.6 2.6-0.2 20.2 1 38.8 2.4 36.8 1.8 55.6-3.2 93.4-1.8 13.4-2.6 26.4-2 29s13.8 17.4 29.4 32.6c15.4 15.4 28 28.6 28 29.6 0 2.6-49.8 116.2-51.6 118-1 1-18.8 0.2-40-1.4-33.2-2.6-39.2-2.6-44-0.2-3 1.6-12 11-20.2 21-19 23.4-49.8 53-75.2 71.6-11 8.2-21.2 16.8-22.4 19.2-2 3.4-2.2 14.4-1.4 44.4l1.2 40-58.6 22.4c-32.4 12.4-60.2 22.8-61.8 23.4-2 0.6-11-8.4-27-27.2zM562.8 862.8c56.6-8.8 109.6-30 155.2-62.4 24.4-17.4 65.4-58.2 82.4-82.4 43.2-61.2 65.6-131.4 65.6-206s-22.4-144.8-65.6-206c-17.2-24.4-58-65.2-82.4-82.4-61.2-43.2-131.4-65.6-206-65.6s-144.8 22.4-206 65.6c-24.2 17-65 58-82.4 82.4-43.2 61-65.6 131.4-65.6 206s22.4 144.8 65.6 206c17.2 24.4 58 65.2 82.4 82.4 33 23.4 78.8 44.8 116.4 54.8 41 10.8 100 14 140.4 7.6zM479 843.8c-138-14.4-254.8-114.8-287.8-247.6-8.2-32.6-10-48-10-82.2 0-81.6 26.2-152.8 79.6-215.8 66.2-78.6 175.6-123.6 277.8-114.6 117.6 10.6 218.4 77.4 270.6 179.8 24.4 48 35.6 95.2 35.6 150.6 0 34.2-1.8 49.6-10 82.2-39.2 157.4-193.2 264.6-355.8 247.6zM674 762.2c2.6-5.2 2.6-81.2 0-86.4-2-3.6-5.4-3.8-115.6-3.8h-113.6l-10.4-5.2c-11.2-5.6-26.2-20.8-33-33.6-4.4-8-4.4-10.2-5-101.2-0.6-99.2 0.8-126.4 7.8-145 6.2-16.6 18.4-30.8 32.8-38l12-6h56c54.2 0 56.4 0.2 66 4.6 12 5.6 21.8 14.6 27.6 25.4 3.8 7.2 4.4 11.8 5 46.2 0.6 33.6 0.4 38.6-2.6 41.4-3 3-10.2 3.4-66 3.4-55.2 0-62.8 0.4-63.8 3.2-1.8 4.6-1.4 85.4 0.4 88.4 1.4 2 26.6 2.4 119.6 2l117.8-0.6 0.6-92c0.4-87 0.2-92.8-3.6-107.6-13.6-52.8-57-95.8-107-106.4-20.8-4.4-179-4.4-195.8 0-46.4 12.2-86.8 55.4-104.6 112l-5.6 18v266l6.6 16.8c18.4 48 54.6 85.8 94.2 98.4 10.2 3.2 22 3.6 144.6 3.6 130 0.2 133.6 0 135.6-3.6z"/>
</g>
</symbol>
<symbol id="i-win" viewBox="0 0 640 640">
<path fill="currentColor" d="M96 157.7L279.6 132.4L279.6 309.8L96 309.8L96 157.7zM96 482.3L279.6 507.6L279.6 332.4L96 332.4L96 482.3zM299.8 510.3L544 544L544 332.4L299.8 332.4L299.8 510.3zM299.8 129.7L299.8 309.8L544 309.8L544 96L299.8 129.7z"/>
</symbol>
<symbol id="i-linux" viewBox="0 0 640 640">
<path fill="currentColor" d="M316.9 187.3C317.9 187.8 318.7 189 319.9 189C321 189 322.7 188.6 322.8 187.5C323 186.1 320.9 185.2 319.6 184.6C317.9 183.9 315.7 183.6 314.1 184.5C313.7 184.7 313.3 185.2 313.5 185.6C313.8 186.9 315.8 186.7 316.9 187.3zM295 189C296.2 189 297 187.8 298 187.3C299.1 186.7 301.1 186.9 301.5 185.7C301.7 185.3 301.3 184.8 300.9 184.6C299.3 183.7 297.1 184 295.4 184.7C294.1 185.3 292 186.2 292.2 187.6C292.3 188.6 294 189.1 295 189zM516 467.8C512.4 463.8 510.7 456.2 508.8 448.1C507 440 504.9 431.3 498.3 425.7C497 424.6 495.7 423.6 494.3 422.8C493 422 491.6 421.3 490.2 420.8C499.4 393.5 495.8 366.3 486.5 341.7C475.1 311.6 455.2 285.3 440 267.3C422.9 245.8 406.3 225.4 406.6 195.3C407.1 149.4 411.7 64.1 330.8 64C228.4 63.8 254 167.4 252.9 199.2C251.2 222.6 246.5 241 230.4 263.9C211.5 286.4 184.9 322.7 172.3 360.6C166.3 378.5 163.5 396.7 166.1 413.9C159.6 419.7 154.7 428.6 149.5 434.1C145.3 438.4 139.2 440 132.5 442.4C125.8 444.8 118.5 448.4 114 456.9C111.9 460.8 111.2 465 111.2 469.3C111.2 473.2 111.8 477.2 112.4 481.1C113.6 489.2 114.9 496.8 113.2 501.9C108 516.3 107.3 526.3 111 533.6C114.8 540.9 122.4 544.1 131.1 545.9C148.4 549.5 171.9 548.6 190.4 558.4C210.2 568.8 230.3 572.5 246.3 568.8C257.9 566.2 267.4 559.2 272.2 548.6C284.7 548.5 298.5 543.2 320.5 542C335.4 540.8 354.1 547.3 375.6 546.1C376.2 548.4 377 550.7 378.1 552.8L378.1 552.9C386.4 569.6 401.9 577.2 418.4 575.9C435 574.6 452.5 564.9 466.7 548C480.3 531.6 502.7 524.8 517.6 515.8C525 511.3 531 505.7 531.5 497.5C531.9 489.3 527.1 480.2 516 467.8zM319.8 151.3C329.6 129.1 354 129.5 363.8 150.9C370.3 165.1 367.4 181.8 359.5 191.3C357.9 190.5 353.6 188.7 346.9 186.4C348 185.2 350 183.7 350.8 181.8C355.6 170 350.6 154.8 341.7 154.5C334.4 154 327.8 165.3 329.9 177.5C325.8 175.5 320.5 174 316.9 173.1C315.9 166.2 316.6 158.5 319.8 151.3zM279.1 139.8C289.2 139.8 299.9 154 298.2 173.3C294.7 174.3 291.1 175.8 288 177.9C289.2 169 284.7 157.8 278.4 158.3C270 159 268.6 179.5 276.6 186.4C277.6 187.2 278.5 186.2 270.7 191.9C255.1 177.3 260.2 139.8 279.1 139.8zM265.5 200.5C271.7 195.9 279.1 190.5 279.6 190C284.3 185.6 293.1 175.8 307.5 175.8C314.6 175.8 323.1 178.1 333.4 184.7C339.7 188.8 344.7 189.1 356 194C364.4 197.5 369.7 203.7 366.5 212.2C363.9 219.3 355.5 226.6 343.8 230.3C332.7 233.9 324 246.3 305.6 245.2C301.7 245 298.6 244.2 296 243.1C288 239.6 283.8 232.7 276 228.1C267.4 223.3 262.8 217.7 261.3 212.8C259.9 207.9 261.3 203.8 265.5 200.5zM268.8 534.5C266.1 569.6 224.9 568.9 193.5 552.5C163.6 536.7 124.9 546 117 530.6C114.6 525.9 114.6 517.9 119.6 504.2L119.6 504C122 496.4 120.2 488 119 480.1C117.8 472.3 117.2 465.1 119.9 460.1C123.4 453.4 128.4 451 134.7 448.8C145 445.1 146.5 445.4 154.3 438.9C159.8 433.2 163.8 426 168.6 420.9C173.7 415.4 178.6 412.8 186.3 414C194.4 415.2 201.4 420.8 208.2 430L227.8 465.6C237.3 485.5 270.9 514 268.8 534.5zM267.4 508.6C263.3 502 257.8 495 253 489C260.1 489 267.2 486.8 269.7 480.1C272 473.9 269.7 465.2 262.3 455.2C248.8 437 224 422.7 224 422.7C210.5 414.3 202.9 404 199.4 392.8C195.9 381.6 196.4 369.5 199.1 357.6C204.3 334.7 217.7 312.4 226.3 298.4C228.6 296.7 227.1 301.6 217.6 319.2C209.1 335.3 193.2 372.5 215 401.6C215.6 380.9 220.5 359.8 228.8 340.1C240.8 312.7 266.1 265.2 268.1 227.4C269.2 228.2 272.7 230.6 274.3 231.5C278.9 234.2 282.4 238.2 286.9 241.8C299.3 251.8 315.4 251 329.3 243C335.5 239.5 340.5 235.5 345.2 234C355.1 230.9 363 225.4 367.5 219C375.2 249.4 393.2 293.3 404.7 314.7C410.8 326.1 423 350.2 428.3 379.3C431.6 379.2 435.3 379.7 439.2 380.7C453 345 427.5 306.5 415.9 295.8C411.2 291.2 411 289.2 413.3 289.3C425.9 300.5 442.5 323 448.5 348.3C451.3 359.9 451.8 372 448.9 384C465.3 390.8 484.8 401.9 479.6 418.8C477.4 418.7 476.4 418.8 475.4 418.8C478.6 408.7 471.5 401.2 452.6 392.7C433 384.1 416.6 384.1 414.3 405.2C402.2 409.4 396 419.9 392.9 432.5C390.1 443.7 389.3 457.2 388.5 472.4C388 480.1 384.9 490.4 381.7 501.4C349.6 524.3 305 534.3 267.4 508.6zM524.8 497.1C523.9 513.9 483.6 517 461.6 543.6C448.4 559.3 432.2 568 418 569.1C403.8 570.2 391.5 564.3 384.3 549.8C379.6 538.7 381.9 526.7 385.4 513.5C389.1 499.3 394.6 484.7 395.3 472.9C396.1 457.7 397 444.4 399.5 434.2C402.1 423.9 406.1 417 413.2 413.1C413.5 412.9 413.9 412.8 414.2 412.6C415 425.8 421.5 439.2 433 442.1C445.6 445.4 463.7 434.6 471.4 425.8C480.4 425.5 487.1 424.9 494 430.9C503.9 439.4 501.1 461.2 511.1 472.5C521.7 484.1 525.1 492 524.8 497.1zM269.4 212.7C271.4 214.6 274.1 217.2 277.4 219.8C284 225 293.2 230.4 304.7 230.4C316.3 230.4 327.2 224.5 336.5 219.6C341.4 217 347.4 212.6 351.3 209.2C355.2 205.8 357.2 202.9 354.4 202.6C351.6 202.3 351.8 205.2 348.4 207.7C344 210.9 338.7 215.1 334.5 217.5C327.1 221.7 315 227.7 304.6 227.7C294.2 227.7 285.9 222.9 279.7 218C276.6 215.5 274 213 272 211.1C270.5 209.7 270.1 206.5 267.7 206.2C266.3 206.1 265.9 209.9 269.4 212.7z"/>
</symbol>
<symbol id="i-docker" viewBox="0 0 640 640">
<path fill="currentColor" d="M349.9 300.3L283.8 300.3L283.8 240.9L349.9 240.9L349.9 300.3zM349.9 96L283.8 96L283.8 156.7L349.9 156.7L349.9 96zM428.1 240.8L362 240.8L362 300.2L428.1 300.2L428.1 240.8zM271.8 168.7L205.7 168.7L205.7 228.8L271.8 228.8L271.8 168.7zM349.9 168.7L283.8 168.7L283.8 228.8L349.9 228.8L349.9 168.7zM626.7 268.7C612.3 259 579.1 255.5 553.6 260.3C550.3 236.3 536.9 215.4 512.5 196.6L498.5 187.3L489.2 201.3C470.8 229.1 465.8 274.9 485.5 305.1C476.8 309.8 459.7 316.2 437.1 315.8L2.4 315.8C-6.3 366.6 8.2 432.6 46.4 477.9C83.5 521.8 139.1 544.1 211.8 544.1C369.2 544.1 485.7 471.6 540.2 339.9C561.6 340.3 607.8 340 631.5 294.7C633 292.2 638.1 281.5 640 277.6L626.7 268.7zM115.6 240.8L49.6 240.8L49.6 300.2L115.7 300.2L115.7 240.8L115.6 240.8zM193.7 240.8L127.6 240.8L127.6 300.2L193.7 300.2L193.7 240.8zM271.8 240.8L205.7 240.8L205.7 300.2L271.8 300.2L271.8 240.8zM193.7 168.7L127.6 168.7L127.6 228.8L193.7 228.8L193.7 168.7z"/>
</symbol>
<symbol id="i-cs" viewBox="0 0 1024 1024">
<g transform="translate(0,1024) scale(1,-1)">
<path fill="currentColor" d="M557.972 970.658c-3.673-0.21-7.321-0.875-10.89-2.108-43.087-7.756-65.732-62.837-46.822-100.462-2.294-2.112-4.564-4.272-6.858-6.364-8.308 11.403-23.092 8.241-34.858 5.422-24.891-8.396-40.891-31.367-49.246-55.202-10.367-28.012-9.469-58.465-5.87-87.648-11.564-5.503-24.612-2.010-36.472-6.14-0.848-23.33-2.393-46.688-6.45-69.722-0.942-6.815-2.345-13.888 0.178-20.568 10.487-2.429 20.9-5.143 31.59-6.542-6.559-1.238-12.811-3.645-18.684-6.766 0 0-3.422-2.593-4.572-3.676-3.532-30.4 6.968-59.824 6.094-90.198-14.066 2.98-13.533-13.454-15.416-22.63 1.924-1.769 3.827-3.587 5.778-5.376-1.836-3.189-3.355-6.464-4.572-9.902 2.476-8.718-0.002-19.025 7.754-25.496-4.104-25.786-8.878-51.528-11.562-77.516-1.103-8.578 4.373-17.075 1.252-25.45-2.913-9.472-10.167-16.932-12.32-26.794-11.288-11.174-17.505-26.093-24.824-39.924-6.216-11.059-5.027-24.028-7.57-36.070-6.747-11.746-16.474-23.165-16.266-37.46-0.114-7.662-1.609-16.398 4.842-22.136-5.14-27.414-13.585-54.075-19.942-81.192-1.009-10.3-1.681-21.55 3.136-31.096 20.532-5.852 41.988-3.018 62.91-1.39 1.399 9.176 1.656 18.512-2.912 26.84-7.434 26.498-0.174 55.256 12.992 78.774 11.564 2.112 15.53 13.346 18.282 23.302 6.034 22.092 20.367 40.94 25.002 63.496 1.030 7.090-3.388 14.332-0.402 21.24 3.256 7.501 5.205 16.602 12.504 21.372 6.721 4.359 10.080 11.75 12.952 18.908 2.2 6.633 10.518 7.819 13.848 13.624 6.196 10.784 3.094 24.14 8.65 35.22 7.272 17.067 10.946 36.677 24.824 50.004 6.559 5.665 6.164 15.202 11.694 21.418 3.875-7.568 7.069-15.874 13.13-22.090 5.254-2.274 11.182-1.692 16.806-2.062 14.336-20.969 28.477-42.051 42.658-63.134 5.987-9.821 19.524-11.794 29.574-7.57 3.007-4.999 7.654-9.386 9.006-15.232-0.874-8.994-2.051-17.956-2.556-27.018-5.55-5.207-9.623-12.408-8.156-20.252 1.857-16.125 3.334-32.355 4.572-48.574 1.904-11.106 7.645-21.415 6.542-33.026 1.534-1.285 4.6-3.867 6.14-5.152-1.030-17.78 3.868-35.613 1.298-53.232-8.006-15.553-8.388-33.459-12.768-50.142 10.326-12.022 26.681-5.349 40.102-5.692 13.858-1.608 26.597-9.272 40.866-8.512 18.54 0.276 37.232-1.401 55.564 1.97 1.217 6.606 1.72 13.315-0.85 19.672-8.396 5.415-17.518 9.566-27.064 12.412-10.138 2.549-15.752 12.067-22.446 19.178-6.128 7.985-15.142 14.852-16.266 25.542-1.581 14.571-0.885 29.39-0.448 44.002 2.294 6.243 7.176 11.594 6.812 18.684 3.256 13.811-4.798 27.214-1.838 40.952 4.796 30.42 8.578 61.132 7.616 91.99-1.628 2.314-3.235 4.604-4.796 6.898-0.505 5.072-1.043 10.055-1.568 15.054-4.016 1.769-8.586 3.537-9.454 8.38-8.947 24.985-19.198 49.444-30.694 73.352-11.174 21.104-25.679 40.27-41.67 57.936-2.846 8.308-3.739 17.164-5.778 25.674 1.581 3.189 3.168 6.378 4.796 9.546 7.158-1.009 16.571-7.98 22.538-1.212 6.815 10.414 12.294 22.103 11.608 34.858-0.094 21.749 6.145 43.29 3.044 64.972-1.722 9.956-9.741 17.072-19.448 18.908 1.951 7.043 3.823 14.148 5.020 21.326 25.536-13.125 51.426-31.148 80.79-33.738 16.246-2.388 24.206 12.854 36.248 19.85 15.694 11.174 11.534 33.005 18.328 49.022 4.729 1.581 9.546 2.969 14.336 4.348-2.476 15.58-8.81 30.586-7.754 46.644 8.557 6.398 18.579 13.356 22.090 23.796 3.33 1.608 6.664 3.277 9.994 5.020 24.251 0.37 48.494-0.145 72.766 0.178 6.169-0.323 3.909 7.889 5.376 11.562 6.149-3.949 13.751-4.461 20.7-2.51 11.699 3.834 24.186 1.714 36.248 2.286 7.844-0.229 16.56 1.565 23.078-4.032 10.071 1.742 20.33 1.551 30.562 1.39 0.135 4.104 0.241 8.17 0.402 12.28-7.959-0.020-15.878-0.088-23.796-0.27-2.408 0.962-4.852 1.924-7.26 2.866-1.305-0.989-3.933-2.892-5.244-3.854-17.572-1.42-35.343-0.266-52.962-0.448 0.208 5.503 2.912 11.654-1.884 16.134-1.030-1.217-3.088-3.671-4.124-4.882-1.379 1.675-4.135 5.070-5.514 6.766-0.094 9.015-0.091 18.003-0.132 27.018-1.561-0.020-4.71-0.111-6.318-0.178 0.020-11.423-0.021-22.92 0.046-34.37-1.655 0-4.96 0.046-6.588 0.046 0.135 2.159 0.425 6.445 0.58 8.604-62.927 0.619-125.823-0.008-188.776 0.356 0 1.446-0.045 4.292-0.092 5.738-3.834 0.915-7.617 1.902-11.384 2.958-0.021 5.873-0.156 11.889-3.136 17.116-2.57-7.871-4.057-16.034-6.002-24.060-14.362 0.989-26.658-9.107-41.176-6.766-0.733 8.349-2.036 16.672-2.016 25.094 6.788 2.274 15.165 3.179 19.982 9.052 7.064 17.41 2.411 37.051-4.882 53.634 0.411 0.962 1.157 2.978 1.568 3.946-0.78 1.446-2.402 4.357-3.182 5.824-10.232 3.855-19.365 9.807-28.5 15.68-9.805 4.832-21.024 8.331-32.038 7.708zM53.164 626.712c-25.348 0-45.886-20.532-45.886-45.886v-206.478c0-25.348 20.532-45.886 45.886-45.886h183.538c25.348 0 45.886 20.532 45.886 45.886 0 12.661-10.279 22.94-22.94 22.94h-183.538v160.592h183.538c12.661 0 22.94 10.279 22.94 22.94 0 25.348-20.532 45.886-45.886 45.886h-183.538zM787.304 626.712c-25.348 0-45.886-20.532-45.886-45.886v-91.766c0-25.348 20.532-45.886 45.886-45.886h160.592v-45.886h-183.538c-12.661 0-22.94-10.279-22.94-22.94 0-25.348 20.532-45.886 45.886-45.886h183.538c25.348 0 45.886 20.532 45.886 45.886v114.712c0 12.661-10.279 22.94-22.94 22.94h-188.822v45.886h188.822c12.661 0 22.94 10.279 22.94 22.94 0 25.348-20.532 45.886-45.886 45.886h-183.538z"/>
</g>
</symbol>
<symbol id="i-rust" viewBox="0 0 1024 1024">
<g transform="translate(0,1024) scale(1,-1)">
<path fill="currentColor" d="M130.307 1005.023c-55.396-7.993-103.338-57.040-111.614-114.094-3.585-26.175-3.585-731.684 0-757.859 8.545-58.429 55.949-105.818 114.363-114.363 26.175-3.585 731.684-3.585 757.859 0 58.429 8.545 105.818 55.949 114.363 114.363 3.585 26.175 3.585 731.684 0 757.859-8.545 58.429-55.949 105.818-114.363 114.363-23.978 3.302-736.913 3.033-760.622-0.269zM688.647 884.311c4.407-4.407 7.993-10.473 7.993-13.222s-7.993-41.338-17.643-85.709c-11.578-53.738-18.735-82.407-22.051-85.425-4.138-4.138-12.953-4.691-69.723-5.513-68.901-0.822-77.433 0.269-83.229 11.295-3.585 7.171-36.109 158.734-36.109 168.385 0 4.138 3.033 9.098 7.171 12.4 7.171 5.513 10.473 5.782 106.371 5.782h99.214l7.993-7.993zM619.207 627.469c22.603-7.993 22.603-49.331 0-57.323-4.96-1.658-22.051-3.033-38.305-3.033s-33.345 1.375-38.305 3.033c-21.767 7.709-22.873 47.403-1.658 56.501 10.203 4.407 65.869 4.96 78.269 0.822zM257.907 563.258c53.738-11.578 82.407-18.735 85.425-22.051 4.138-4.138 4.691-12.953 5.513-69.723 0.822-68.901-0.269-77.433-11.295-83.229-7.171-3.585-158.734-36.109-168.385-36.109-4.138 0-9.098 3.033-12.4 7.171-5.513 7.171-5.782 10.473-5.782 106.371v99.214l7.993 7.993c4.407 4.407 10.473 7.993 13.222 7.993s41.338-7.993 85.709-17.643zM584.203 520.815c12.953-13.222 15.985-17.913 15.985-25.353s-3.033-12.131-15.985-25.353c-22.32-22.32-28.385-22.051-52.080 1.375-11.295 11.578-17.36 19.84-17.36 23.978s6.065 12.4 17.36 23.978c23.695 23.425 29.76 23.695 52.080 1.375zM462.117 517.229c13.775-4.96 16.807-14.058 16.807-52.080s-3.033-47.12-16.807-52.080c-11.578-4.138-20.123-3.855-31.135 0.822-13.505 5.513-15.985 14.88-14.88 54.843 0.822 29.76 1.658 35.273 6.335 40.516 9.651 11.025 23.425 13.505 39.68 7.993zM663.294 458.262c7.993-7.709 9.92-11.578 9.92-20.662 0-10.473-1.927-12.953-27.011-37.753-24.8-25.083-27.28-27.011-37.753-27.011-9.098 0-12.953 1.927-21.215 10.473-8.545 8.262-10.473 12.131-10.473 21.498 0 10.473 1.658 12.683 28.385 38.858 27.28 27.011 28.385 27.833 38.305 26.175 6.618-1.105 13.775-5.229 19.84-11.578zM820.101 359.048c38.858-25.083 72.473-47.956 74.683-50.989 1.927-3.033 3.033-8.262 1.927-11.578-0.822-3.585-33.345-38.305-72.756-77.163-60.909-60.909-72.203-71.098-79.091-71.098-4.691 0-9.651 1.105-11.295 2.211-1.927 1.105-23.695 33.898-49.047 72.756-31.687 48.778-45.745 73.025-45.745 78.538 0 6.335 8.545 16.255 47.403 55.113 39.127 39.127 49.047 47.673 55.396 47.673 5.229 0 30.043-14.327 78.538-45.476z"/>
</g>
</symbol>
<symbol id="i-mc" viewBox="0 0 1024 1024">
<g transform="translate(0,1024) scale(1,-1)">
<path fill="currentColor" d="M113.067 1010.667h797.867c55.084 0 99.733-44.649 99.733-99.733v-797.867c0-55.084-44.649-99.733-99.733-99.733h-797.867c-55.084 0-99.733 44.649-99.733 99.733v797.867c0 55.084 44.649 99.733 99.733 99.733zM212.8 811.2v-199.467h199.467v-99.733h-99.733v-299.2h99.733v99.733h199.467v-99.733h99.733v299.2h-99.733v99.733h199.467v199.467h-199.467v-199.467h-199.467v199.467h-199.467z"/>
</g>
</symbol>
<symbol id="i-fivem" viewBox="0 0 1024 1024">
<g transform="translate(0,1024) scale(1,-1)">
<path fill="currentColor" d="M56.001 8l96.001 263.997 287.997 287.997-144.002-552.001zM536 656.002l192.003-648.002h240.003l-263.997 791.997zM321.417 748.064l94.582 267.936h192.003zM193.543 391.949l294.457 288.047v48.001l-274.077-280.011zM299.411 693.703l-51.408-133.702 401.376 390.6-21.743 61.126zM510.367 750.683l10.683-37.701 157.539 154.749-13.345 35.422z"/>
</g>
</symbol>
<mask id="imagine-text-gaps-p9sqm9" maskUnits="userSpaceOnUse"><rect x="0" y="0" width="680" height="473.31" fill="white"/><rect x="286.31671142578125" y="39.263832092285156" width="107.36653900146484" height="21.47233772277832" fill="black" rx="2"/><rect x="344" y="84.19436645507812" width="84.37506866455078" height="19.111210823059082" fill="black" rx="2"/><rect x="306.75152587890625" y="137.2638397216797" width="66.49691390991211" height="21.47233772277832" fill="black" rx="2"/><rect x="246.6239776611328" y="155.44439697265625" width="186.75204467773438" height="19.111210823059082" fill="black" rx="2"/><rect x="292.51837158203125" y="197.19436645507812" width="94.96324920654297" height="19.111210823059082" fill="black" rx="2"/><rect x="85.78717803955078" y="281.2638244628906" width="124.4256820678711" height="21.47233772277832" fill="black" rx="2"/><rect x="117.80255889892578" y="298.44439697265625" width="60.39487838745117" height="19.111210823059082" fill="black" rx="2"/><rect x="277.7871398925781" y="281.2638244628906" width="124.4256820678711" height="21.47233772277832" fill="black" rx="2"/><rect x="290.3896789550781" y="298.44439697265625" width="99.22065734863281" height="19.111210823059082" fill="black" rx="2"/><rect x="469.78717041015625" y="281.2638244628906" width="124.4256820678711" height="21.47233772277832" fill="black" rx="2"/><rect x="486.7614440917969" y="298.44439697265625" width="90.47710418701172" height="19.111210823059082" fill="black" rx="2"/><rect x="13.116886138916016" y="414.44439697265625" width="101.76624298095703" height="19.111210823059082" fill="black" rx="2"/><rect x="175.08021545410156" y="414.44439697265625" width="33.83958053588867" height="19.111210823059082" fill="black" rx="2"/><rect x="288.1903381347656" y="414.44439697265625" width="63.61928939819336" height="19.111210823059082" fill="black" rx="2"/><rect x="426.5645751953125" y="414.44439697265625" width="42.87089157104492" height="19.111210823059082" fill="black" rx="2"/><rect x="539.54931640625" y="414.44439697265625" width="72.9014663696289" height="19.111210823059082" fill="black" rx="2"/><rect x="198.00001525878906" y="446.1943664550781" width="48.434295654296875" height="19.111210823059082" fill="black" rx="2"/><rect x="340" y="446.1943664550781" width="90.80176544189453" height="19.111210823059082" fill="black" rx="2"/></mask></defs>


<!-- TIER 1: Admins -->
<g onclick="sendPrompt('How do administrators interact with GameAP?')" style="fill:rgb(0, 0, 0);stroke:none;color:rgb(0, 0, 0);stroke-width:1px;stroke-linecap:butt;stroke-linejoin:miter;opacity:1;font-family:&quot;Anthropic Sans&quot;, -apple-system, &quot;system-ui&quot;, &quot;Segoe UI&quot;, sans-serif;font-size:16px;font-weight:400;text-anchor:start;dominant-baseline:auto">
<rect x="260" y="28" width="160" height="44" rx="8" stroke-width="0.5" style="fill:rgb(241, 239, 232);stroke:rgb(95, 94, 90);color:rgb(0, 0, 0);stroke-width:0.5px;stroke-linecap:butt;stroke-linejoin:miter;opacity:1;font-family:&quot;Anthropic Sans&quot;, -apple-system, &quot;system-ui&quot;, &quot;Segoe UI&quot;, sans-serif;font-size:16px;font-weight:400;text-anchor:start;dominant-baseline:auto"/>
<text x="340" y="50" text-anchor="middle" dominant-baseline="central" style="fill:rgb(68, 68, 65);stroke:none;color:rgb(0, 0, 0);stroke-width:1px;stroke-linecap:butt;stroke-linejoin:miter;opacity:1;font-family:&quot;Anthropic Sans&quot;, -apple-system, &quot;system-ui&quot;, &quot;Segoe UI&quot;, sans-serif;font-size:14px;font-weight:500;text-anchor:middle;dominant-baseline:central">Administrators</text>
</g>
<line x1="340" y1="72" x2="340" y2="118" stroke="var(--s)" stroke-width="1.5" marker-end="url(#arrow)" style="fill:rgb(0, 0, 0);stroke:rgb(61, 61, 58);color:rgb(0, 0, 0);stroke-width:1.5px;stroke-linecap:butt;stroke-linejoin:miter;opacity:1;font-family:&quot;Anthropic Sans&quot;, -apple-system, &quot;system-ui&quot;, &quot;Segoe UI&quot;, sans-serif;font-size:16px;font-weight:400;text-anchor:start;dominant-baseline:auto"/>
<text x="348" y="98" text-anchor="start" style="fill:rgb(61, 61, 58);stroke:none;color:rgb(0, 0, 0);stroke-width:1px;stroke-linecap:butt;stroke-linejoin:miter;opacity:1;font-family:&quot;Anthropic Sans&quot;, -apple-system, &quot;system-ui&quot;, &quot;Segoe UI&quot;, sans-serif;font-size:12px;font-weight:400;text-anchor:start;dominant-baseline:auto">HTTP / HTTPS</text>

<!-- TIER 2: GameAP -->
<g onclick="sendPrompt('What does GameAP consist of? Tell me about the architecture.')" style="fill:rgb(0, 0, 0);stroke:none;color:rgb(0, 0, 0);stroke-width:1px;stroke-linecap:butt;stroke-linejoin:miter;opacity:1;font-family:&quot;Anthropic Sans&quot;, -apple-system, &quot;system-ui&quot;, &quot;Segoe UI&quot;, sans-serif;font-size:16px;font-weight:400;text-anchor:start;dominant-baseline:auto">
<rect x="180" y="120" width="320" height="62" rx="8" stroke-width="0.5" style="fill:rgb(238, 237, 254);stroke:rgb(83, 74, 183);color:rgb(0, 0, 0);stroke-width:0.5px;stroke-linecap:butt;stroke-linejoin:miter;opacity:1;font-family:&quot;Anthropic Sans&quot;, -apple-system, &quot;system-ui&quot;, &quot;Segoe UI&quot;, sans-serif;font-size:16px;font-weight:400;text-anchor:start;dominant-baseline:auto"/>
<use href="#i-gameap" x="332" y="122" width="16" height="16" style="fill:rgb(0, 0, 0);stroke:none;color:rgb(60, 52, 137);stroke-width:1px;stroke-linecap:butt;stroke-linejoin:miter;opacity:1;font-family:&quot;Anthropic Sans&quot;, -apple-system, &quot;system-ui&quot;, &quot;Segoe UI&quot;, sans-serif;font-size:16px;font-weight:400;text-anchor:start;dominant-baseline:auto"/>
<text x="340" y="148" text-anchor="middle" dominant-baseline="central" style="fill:rgb(60, 52, 137);stroke:none;color:rgb(0, 0, 0);stroke-width:1px;stroke-linecap:butt;stroke-linejoin:miter;opacity:1;font-family:&quot;Anthropic Sans&quot;, -apple-system, &quot;system-ui&quot;, &quot;Segoe UI&quot;, sans-serif;font-size:14px;font-weight:500;text-anchor:middle;dominant-baseline:central">GameAP</text>
<text x="340" y="165" text-anchor="middle" dominant-baseline="central" style="fill:rgb(83, 74, 183);stroke:none;color:rgb(0, 0, 0);stroke-width:1px;stroke-linecap:butt;stroke-linejoin:miter;opacity:1;font-family:&quot;Anthropic Sans&quot;, -apple-system, &quot;system-ui&quot;, &quot;Segoe UI&quot;, sans-serif;font-size:12px;font-weight:400;text-anchor:middle;dominant-baseline:central">Web panel · REST API · Database</text>
</g>
<text x="340" y="211" text-anchor="middle" style="fill:rgb(61, 61, 58);stroke:none;color:rgb(0, 0, 0);stroke-width:1px;stroke-linecap:butt;stroke-linejoin:miter;opacity:1;font-family:&quot;Anthropic Sans&quot;, -apple-system, &quot;system-ui&quot;, &quot;Segoe UI&quot;, sans-serif;font-size:12px;font-weight:400;text-anchor:middle;dominant-baseline:auto">GDAEMON API</text>

<!-- Down: GameAP → Daemons -->
<path d="M306,182 L306,220 L148,220 L148,255" fill="none" stroke="var(--s)" stroke-width="1.5" marker-end="url(#arrow)" mask="url(#imagine-text-gaps-p9sqm9)" style="fill:none;stroke:rgb(61, 61, 58);color:rgb(0, 0, 0);stroke-width:1.5px;stroke-linecap:butt;stroke-linejoin:miter;opacity:1;font-family:&quot;Anthropic Sans&quot;, -apple-system, &quot;system-ui&quot;, &quot;Segoe UI&quot;, sans-serif;font-size:16px;font-weight:400;text-anchor:start;dominant-baseline:auto"/>
<path d="M340,182 L340,255" fill="none" stroke="var(--s)" stroke-width="1.5" marker-end="url(#arrow)" mask="url(#imagine-text-gaps-p9sqm9)" style="fill:none;stroke:rgb(61, 61, 58);color:rgb(0, 0, 0);stroke-width:1.5px;stroke-linecap:butt;stroke-linejoin:miter;opacity:1;font-family:&quot;Anthropic Sans&quot;, -apple-system, &quot;system-ui&quot;, &quot;Segoe UI&quot;, sans-serif;font-size:16px;font-weight:400;text-anchor:start;dominant-baseline:auto"/>
<path d="M374,182 L374,220 L532,220 L532,255" fill="none" stroke="var(--s)" stroke-width="1.5" marker-end="url(#arrow)" mask="url(#imagine-text-gaps-p9sqm9)" style="fill:none;stroke:rgb(61, 61, 58);color:rgb(0, 0, 0);stroke-width:1.5px;stroke-linecap:butt;stroke-linejoin:miter;opacity:1;font-family:&quot;Anthropic Sans&quot;, -apple-system, &quot;system-ui&quot;, &quot;Segoe UI&quot;, sans-serif;font-size:16px;font-weight:400;text-anchor:start;dominant-baseline:auto"/>
<!-- Up: Daemons → GameAP -->
<path d="M138,255 L138,228 L316,228 L316,182" fill="none" stroke="var(--s)" stroke-width="1.5" stroke-dasharray="5 3" marker-end="url(#arrow)" mask="url(#imagine-text-gaps-p9sqm9)" style="fill:none;stroke:rgb(61, 61, 58);color:rgb(0, 0, 0);stroke-width:1.5px;stroke-dasharray:5px, 3px;stroke-linecap:butt;stroke-linejoin:miter;opacity:1;font-family:&quot;Anthropic Sans&quot;, -apple-system, &quot;system-ui&quot;, &quot;Segoe UI&quot;, sans-serif;font-size:16px;font-weight:400;text-anchor:start;dominant-baseline:auto"/>
<path d="M330,255 L330,182" fill="none" stroke="var(--s)" stroke-width="1.5" stroke-dasharray="5 3" marker-end="url(#arrow)" mask="url(#imagine-text-gaps-p9sqm9)" style="fill:none;stroke:rgb(61, 61, 58);color:rgb(0, 0, 0);stroke-width:1.5px;stroke-dasharray:5px, 3px;stroke-linecap:butt;stroke-linejoin:miter;opacity:1;font-family:&quot;Anthropic Sans&quot;, -apple-system, &quot;system-ui&quot;, &quot;Segoe UI&quot;, sans-serif;font-size:16px;font-weight:400;text-anchor:start;dominant-baseline:auto"/>
<path d="M522,255 L522,228 L364,228 L364,182" fill="none" stroke="var(--s)" stroke-width="1.5" stroke-dasharray="5 3" marker-end="url(#arrow)" mask="url(#imagine-text-gaps-p9sqm9)" style="fill:none;stroke:rgb(61, 61, 58);color:rgb(0, 0, 0);stroke-width:1.5px;stroke-dasharray:5px, 3px;stroke-linecap:butt;stroke-linejoin:miter;opacity:1;font-family:&quot;Anthropic Sans&quot;, -apple-system, &quot;system-ui&quot;, &quot;Segoe UI&quot;, sans-serif;font-size:16px;font-weight:400;text-anchor:start;dominant-baseline:auto"/>

<!-- TIER 3: Daemons -->
<g onclick="sendPrompt('How to install GameAP Daemon on Windows?')" style="fill:rgb(0, 0, 0);stroke:none;color:rgb(0, 0, 0);stroke-width:1px;stroke-linecap:butt;stroke-linejoin:miter;opacity:1;font-family:&quot;Anthropic Sans&quot;, -apple-system, &quot;system-ui&quot;, &quot;Segoe UI&quot;, sans-serif;font-size:16px;font-weight:400;text-anchor:start;dominant-baseline:auto">
<rect x="58" y="255" width="180" height="62" rx="8" stroke-width="0.5" style="fill:rgb(250, 238, 218);stroke:rgb(133, 79, 11);color:rgb(0, 0, 0);stroke-width:0.5px;stroke-linecap:butt;stroke-linejoin:miter;opacity:1;font-family:&quot;Anthropic Sans&quot;, -apple-system, &quot;system-ui&quot;, &quot;Segoe UI&quot;, sans-serif;font-size:16px;font-weight:400;text-anchor:start;dominant-baseline:auto"/>
<use href="#i-win" x="139" y="261" width="18" height="18" style="fill:rgb(0, 0, 0);stroke:none;color:rgb(99, 56, 6);stroke-width:1px;stroke-linecap:butt;stroke-linejoin:miter;opacity:1;font-family:&quot;Anthropic Sans&quot;, -apple-system, &quot;system-ui&quot;, &quot;Segoe UI&quot;, sans-serif;font-size:16px;font-weight:400;text-anchor:start;dominant-baseline:auto"/>
<text x="148" y="292" text-anchor="middle" dominant-baseline="central" style="fill:rgb(99, 56, 6);stroke:none;color:rgb(0, 0, 0);stroke-width:1px;stroke-linecap:butt;stroke-linejoin:miter;opacity:1;font-family:&quot;Anthropic Sans&quot;, -apple-system, &quot;system-ui&quot;, &quot;Segoe UI&quot;, sans-serif;font-size:14px;font-weight:500;text-anchor:middle;dominant-baseline:central">GameAP Daemon</text>
<text x="148" y="308" text-anchor="middle" dominant-baseline="central" style="fill:rgb(133, 79, 11);stroke:none;color:rgb(0, 0, 0);stroke-width:1px;stroke-linecap:butt;stroke-linejoin:miter;opacity:1;font-family:&quot;Anthropic Sans&quot;, -apple-system, &quot;system-ui&quot;, &quot;Segoe UI&quot;, sans-serif;font-size:12px;font-weight:400;text-anchor:middle;dominant-baseline:central">Windows</text>
</g>
<g onclick="sendPrompt('How to install GameAP Daemon on Linux with systemd?')" style="fill:rgb(0, 0, 0);stroke:none;color:rgb(0, 0, 0);stroke-width:1px;stroke-linecap:butt;stroke-linejoin:miter;opacity:1;font-family:&quot;Anthropic Sans&quot;, -apple-system, &quot;system-ui&quot;, &quot;Segoe UI&quot;, sans-serif;font-size:16px;font-weight:400;text-anchor:start;dominant-baseline:auto">
<rect x="250" y="255" width="180" height="62" rx="8" stroke-width="0.5" style="fill:rgb(225, 245, 238);stroke:rgb(15, 110, 86);color:rgb(0, 0, 0);stroke-width:0.5px;stroke-linecap:butt;stroke-linejoin:miter;opacity:1;font-family:&quot;Anthropic Sans&quot;, -apple-system, &quot;system-ui&quot;, &quot;Segoe UI&quot;, sans-serif;font-size:16px;font-weight:400;text-anchor:start;dominant-baseline:auto"/>
<use href="#i-linux" x="331" y="261" width="18" height="18" style="fill:rgb(0, 0, 0);stroke:none;color:rgb(8, 80, 65);stroke-width:1px;stroke-linecap:butt;stroke-linejoin:miter;opacity:1;font-family:&quot;Anthropic Sans&quot;, -apple-system, &quot;system-ui&quot;, &quot;Segoe UI&quot;, sans-serif;font-size:16px;font-weight:400;text-anchor:start;dominant-baseline:auto"/>
<text x="340" y="292" text-anchor="middle" dominant-baseline="central" style="fill:rgb(8, 80, 65);stroke:none;color:rgb(0, 0, 0);stroke-width:1px;stroke-linecap:butt;stroke-linejoin:miter;opacity:1;font-family:&quot;Anthropic Sans&quot;, -apple-system, &quot;system-ui&quot;, &quot;Segoe UI&quot;, sans-serif;font-size:14px;font-weight:500;text-anchor:middle;dominant-baseline:central">GameAP Daemon</text>
<text x="340" y="308" text-anchor="middle" dominant-baseline="central" style="fill:rgb(15, 110, 86);stroke:none;color:rgb(0, 0, 0);stroke-width:1px;stroke-linecap:butt;stroke-linejoin:miter;opacity:1;font-family:&quot;Anthropic Sans&quot;, -apple-system, &quot;system-ui&quot;, &quot;Segoe UI&quot;, sans-serif;font-size:12px;font-weight:400;text-anchor:middle;dominant-baseline:central">Linux (systemd)</text>
</g>
<g onclick="sendPrompt('How to run GameAP Daemon in Docker?')" style="fill:rgb(0, 0, 0);stroke:none;color:rgb(0, 0, 0);stroke-width:1px;stroke-linecap:butt;stroke-linejoin:miter;opacity:1;font-family:&quot;Anthropic Sans&quot;, -apple-system, &quot;system-ui&quot;, &quot;Segoe UI&quot;, sans-serif;font-size:16px;font-weight:400;text-anchor:start;dominant-baseline:auto">
<rect x="442" y="255" width="180" height="62" rx="8" stroke-width="0.5" style="fill:rgb(230, 241, 251);stroke:rgb(24, 95, 165);color:rgb(0, 0, 0);stroke-width:0.5px;stroke-linecap:butt;stroke-linejoin:miter;opacity:1;font-family:&quot;Anthropic Sans&quot;, -apple-system, &quot;system-ui&quot;, &quot;Segoe UI&quot;, sans-serif;font-size:16px;font-weight:400;text-anchor:start;dominant-baseline:auto"/>
<use href="#i-docker" x="523" y="261" width="18" height="18" style="fill:rgb(0, 0, 0);stroke:none;color:rgb(12, 68, 124);stroke-width:1px;stroke-linecap:butt;stroke-linejoin:miter;opacity:1;font-family:&quot;Anthropic Sans&quot;, -apple-system, &quot;system-ui&quot;, &quot;Segoe UI&quot;, sans-serif;font-size:16px;font-weight:400;text-anchor:start;dominant-baseline:auto"/>
<text x="532" y="292" text-anchor="middle" dominant-baseline="central" style="fill:rgb(12, 68, 124);stroke:none;color:rgb(0, 0, 0);stroke-width:1px;stroke-linecap:butt;stroke-linejoin:miter;opacity:1;font-family:&quot;Anthropic Sans&quot;, -apple-system, &quot;system-ui&quot;, &quot;Segoe UI&quot;, sans-serif;font-size:14px;font-weight:500;text-anchor:middle;dominant-baseline:central">GameAP Daemon</text>
<text x="532" y="308" text-anchor="middle" dominant-baseline="central" style="fill:rgb(24, 95, 165);stroke:none;color:rgb(0, 0, 0);stroke-width:1px;stroke-linecap:butt;stroke-linejoin:miter;opacity:1;font-family:&quot;Anthropic Sans&quot;, -apple-system, &quot;system-ui&quot;, &quot;Segoe UI&quot;, sans-serif;font-size:12px;font-weight:400;text-anchor:middle;dominant-baseline:central">Linux (docker)</text>
</g>

<!-- Arrows: Daemons → Game servers -->
<path d="M132,317 L132,357 L64,357 L64,387" fill="none" stroke="var(--s)" stroke-width="1.5" marker-end="url(#arrow)" mask="url(#imagine-text-gaps-p9sqm9)" style="fill:none;stroke:rgb(61, 61, 58);color:rgb(0, 0, 0);stroke-width:1.5px;stroke-linecap:butt;stroke-linejoin:miter;opacity:1;font-family:&quot;Anthropic Sans&quot;, -apple-system, &quot;system-ui&quot;, &quot;Segoe UI&quot;, sans-serif;font-size:16px;font-weight:400;text-anchor:start;dominant-baseline:auto"/>
<path d="M164,317 L164,357 L192,357 L192,387" fill="none" stroke="var(--s)" stroke-width="1.5" marker-end="url(#arrow)" mask="url(#imagine-text-gaps-p9sqm9)" style="fill:none;stroke:rgb(61, 61, 58);color:rgb(0, 0, 0);stroke-width:1.5px;stroke-linecap:butt;stroke-linejoin:miter;opacity:1;font-family:&quot;Anthropic Sans&quot;, -apple-system, &quot;system-ui&quot;, &quot;Segoe UI&quot;, sans-serif;font-size:16px;font-weight:400;text-anchor:start;dominant-baseline:auto"/>
<path d="M334,317 L334,357 L320,357 L320,387" fill="none" stroke="var(--s)" stroke-width="1.5" marker-end="url(#arrow)" mask="url(#imagine-text-gaps-p9sqm9)" style="fill:none;stroke:rgb(61, 61, 58);color:rgb(0, 0, 0);stroke-width:1.5px;stroke-linecap:butt;stroke-linejoin:miter;opacity:1;font-family:&quot;Anthropic Sans&quot;, -apple-system, &quot;system-ui&quot;, &quot;Segoe UI&quot;, sans-serif;font-size:16px;font-weight:400;text-anchor:start;dominant-baseline:auto"/>
<path d="M346,317 L346,357 L448,357 L448,387" fill="none" stroke="var(--s)" stroke-width="1.5" marker-end="url(#arrow)" mask="url(#imagine-text-gaps-p9sqm9)" style="fill:none;stroke:rgb(61, 61, 58);color:rgb(0, 0, 0);stroke-width:1.5px;stroke-linecap:butt;stroke-linejoin:miter;opacity:1;font-family:&quot;Anthropic Sans&quot;, -apple-system, &quot;system-ui&quot;, &quot;Segoe UI&quot;, sans-serif;font-size:16px;font-weight:400;text-anchor:start;dominant-baseline:auto"/>
<path d="M532,317 L532,357 L576,357 L576,387" fill="none" stroke="var(--s)" stroke-width="1.5" marker-end="url(#arrow)" mask="url(#imagine-text-gaps-p9sqm9)" style="fill:none;stroke:rgb(61, 61, 58);color:rgb(0, 0, 0);stroke-width:1.5px;stroke-linecap:butt;stroke-linejoin:miter;opacity:1;font-family:&quot;Anthropic Sans&quot;, -apple-system, &quot;system-ui&quot;, &quot;Segoe UI&quot;, sans-serif;font-size:16px;font-weight:400;text-anchor:start;dominant-baseline:auto"/>

<!-- TIER 4: Game servers (w=120, h=54) -->
<g onclick="sendPrompt('How to set up Counter-Strike 2 via GameAP on Windows?')" style="fill:rgb(0, 0, 0);stroke:none;color:rgb(0, 0, 0);stroke-width:1px;stroke-linecap:butt;stroke-linejoin:miter;opacity:1;font-family:&quot;Anthropic Sans&quot;, -apple-system, &quot;system-ui&quot;, &quot;Segoe UI&quot;, sans-serif;font-size:16px;font-weight:400;text-anchor:start;dominant-baseline:auto">
<rect x="4" y="387" width="120" height="54" rx="8" stroke-width="0.5" style="fill:rgb(241, 239, 232);stroke:rgb(95, 94, 90);color:rgb(0, 0, 0);stroke-width:0.5px;stroke-linecap:butt;stroke-linejoin:miter;opacity:1;font-family:&quot;Anthropic Sans&quot;, -apple-system, &quot;system-ui&quot;, &quot;Segoe UI&quot;, sans-serif;font-size:16px;font-weight:400;text-anchor:start;dominant-baseline:auto"/>
<use href="#i-cs" x="57" y="394" width="14" height="14" style="fill:rgb(0, 0, 0);stroke:none;color:rgb(68, 68, 65);stroke-width:1px;stroke-linecap:butt;stroke-linejoin:miter;opacity:1;font-family:&quot;Anthropic Sans&quot;, -apple-system, &quot;system-ui&quot;, &quot;Segoe UI&quot;, sans-serif;font-size:16px;font-weight:400;text-anchor:start;dominant-baseline:auto"/>
<text x="64" y="424" text-anchor="middle" dominant-baseline="central" style="fill:rgb(95, 94, 90);stroke:none;color:rgb(0, 0, 0);stroke-width:1px;stroke-linecap:butt;stroke-linejoin:miter;opacity:1;font-family:&quot;Anthropic Sans&quot;, -apple-system, &quot;system-ui&quot;, &quot;Segoe UI&quot;, sans-serif;font-size:12px;font-weight:400;text-anchor:middle;dominant-baseline:central">Counter-Strike 2</text>
</g>
<g onclick="sendPrompt('How to set up a Rust server via GameAP on Windows?')" style="fill:rgb(0, 0, 0);stroke:none;color:rgb(0, 0, 0);stroke-width:1px;stroke-linecap:butt;stroke-linejoin:miter;opacity:1;font-family:&quot;Anthropic Sans&quot;, -apple-system, &quot;system-ui&quot;, &quot;Segoe UI&quot;, sans-serif;font-size:16px;font-weight:400;text-anchor:start;dominant-baseline:auto">
<rect x="132" y="387" width="120" height="54" rx="8" stroke-width="0.5" style="fill:rgb(241, 239, 232);stroke:rgb(95, 94, 90);color:rgb(0, 0, 0);stroke-width:0.5px;stroke-linecap:butt;stroke-linejoin:miter;opacity:1;font-family:&quot;Anthropic Sans&quot;, -apple-system, &quot;system-ui&quot;, &quot;Segoe UI&quot;, sans-serif;font-size:16px;font-weight:400;text-anchor:start;dominant-baseline:auto"/>
<use href="#i-rust" x="185" y="394" width="14" height="14" style="fill:rgb(0, 0, 0);stroke:none;color:rgb(68, 68, 65);stroke-width:1px;stroke-linecap:butt;stroke-linejoin:miter;opacity:1;font-family:&quot;Anthropic Sans&quot;, -apple-system, &quot;system-ui&quot;, &quot;Segoe UI&quot;, sans-serif;font-size:16px;font-weight:400;text-anchor:start;dominant-baseline:auto"/>
<text x="192" y="424" text-anchor="middle" dominant-baseline="central" style="fill:rgb(95, 94, 90);stroke:none;color:rgb(0, 0, 0);stroke-width:1px;stroke-linecap:butt;stroke-linejoin:miter;opacity:1;font-family:&quot;Anthropic Sans&quot;, -apple-system, &quot;system-ui&quot;, &quot;Segoe UI&quot;, sans-serif;font-size:12px;font-weight:400;text-anchor:middle;dominant-baseline:central">Rust</text>
</g>
<g onclick="sendPrompt('How to set up a Minecraft server via GameAP on Linux systemd?')" style="fill:rgb(0, 0, 0);stroke:none;color:rgb(0, 0, 0);stroke-width:1px;stroke-linecap:butt;stroke-linejoin:miter;opacity:1;font-family:&quot;Anthropic Sans&quot;, -apple-system, &quot;system-ui&quot;, &quot;Segoe UI&quot;, sans-serif;font-size:16px;font-weight:400;text-anchor:start;dominant-baseline:auto">
<rect x="260" y="387" width="120" height="54" rx="8" stroke-width="0.5" style="fill:rgb(241, 239, 232);stroke:rgb(95, 94, 90);color:rgb(0, 0, 0);stroke-width:0.5px;stroke-linecap:butt;stroke-linejoin:miter;opacity:1;font-family:&quot;Anthropic Sans&quot;, -apple-system, &quot;system-ui&quot;, &quot;Segoe UI&quot;, sans-serif;font-size:16px;font-weight:400;text-anchor:start;dominant-baseline:auto"/>
<use href="#i-mc" x="313" y="394" width="14" height="14" style="fill:rgb(0, 0, 0);stroke:none;color:rgb(68, 68, 65);stroke-width:1px;stroke-linecap:butt;stroke-linejoin:miter;opacity:1;font-family:&quot;Anthropic Sans&quot;, -apple-system, &quot;system-ui&quot;, &quot;Segoe UI&quot;, sans-serif;font-size:16px;font-weight:400;text-anchor:start;dominant-baseline:auto"/>
<text x="320" y="424" text-anchor="middle" dominant-baseline="central" style="fill:rgb(95, 94, 90);stroke:none;color:rgb(0, 0, 0);stroke-width:1px;stroke-linecap:butt;stroke-linejoin:miter;opacity:1;font-family:&quot;Anthropic Sans&quot;, -apple-system, &quot;system-ui&quot;, &quot;Segoe UI&quot;, sans-serif;font-size:12px;font-weight:400;text-anchor:middle;dominant-baseline:central">Minecraft</text>
</g>
<g onclick="sendPrompt('How to set up a FiveM server via GameAP on Linux systemd?')" style="fill:rgb(0, 0, 0);stroke:none;color:rgb(0, 0, 0);stroke-width:1px;stroke-linecap:butt;stroke-linejoin:miter;opacity:1;font-family:&quot;Anthropic Sans&quot;, -apple-system, &quot;system-ui&quot;, &quot;Segoe UI&quot;, sans-serif;font-size:16px;font-weight:400;text-anchor:start;dominant-baseline:auto">
<rect x="388" y="387" width="120" height="54" rx="8" stroke-width="0.5" style="fill:rgb(241, 239, 232);stroke:rgb(95, 94, 90);color:rgb(0, 0, 0);stroke-width:0.5px;stroke-linecap:butt;stroke-linejoin:miter;opacity:1;font-family:&quot;Anthropic Sans&quot;, -apple-system, &quot;system-ui&quot;, &quot;Segoe UI&quot;, sans-serif;font-size:16px;font-weight:400;text-anchor:start;dominant-baseline:auto"/>
<use href="#i-fivem" x="441" y="394" width="14" height="14" style="fill:rgb(0, 0, 0);stroke:none;color:rgb(68, 68, 65);stroke-width:1px;stroke-linecap:butt;stroke-linejoin:miter;opacity:1;font-family:&quot;Anthropic Sans&quot;, -apple-system, &quot;system-ui&quot;, &quot;Segoe UI&quot;, sans-serif;font-size:16px;font-weight:400;text-anchor:start;dominant-baseline:auto"/>
<text x="448" y="424" text-anchor="middle" dominant-baseline="central" style="fill:rgb(95, 94, 90);stroke:none;color:rgb(0, 0, 0);stroke-width:1px;stroke-linecap:butt;stroke-linejoin:miter;opacity:1;font-family:&quot;Anthropic Sans&quot;, -apple-system, &quot;system-ui&quot;, &quot;Segoe UI&quot;, sans-serif;font-size:12px;font-weight:400;text-anchor:middle;dominant-baseline:central">FiveM</text>
</g>
<g onclick="sendPrompt('What game server Docker images can GameAP Daemon run?')" style="fill:rgb(0, 0, 0);stroke:none;color:rgb(0, 0, 0);stroke-width:1px;stroke-linecap:butt;stroke-linejoin:miter;opacity:1;font-family:&quot;Anthropic Sans&quot;, -apple-system, &quot;system-ui&quot;, &quot;Segoe UI&quot;, sans-serif;font-size:16px;font-weight:400;text-anchor:start;dominant-baseline:auto">
<rect x="516" y="387" width="120" height="54" rx="8" stroke-width="0.5" style="fill:rgb(241, 239, 232);stroke:rgb(95, 94, 90);color:rgb(0, 0, 0);stroke-width:0.5px;stroke-linecap:butt;stroke-linejoin:miter;opacity:1;font-family:&quot;Anthropic Sans&quot;, -apple-system, &quot;system-ui&quot;, &quot;Segoe UI&quot;, sans-serif;font-size:16px;font-weight:400;text-anchor:start;dominant-baseline:auto"/>
<use href="#i-docker" x="569" y="394" width="14" height="14" style="fill:rgb(0, 0, 0);stroke:none;color:rgb(68, 68, 65);stroke-width:1px;stroke-linecap:butt;stroke-linejoin:miter;opacity:1;font-family:&quot;Anthropic Sans&quot;, -apple-system, &quot;system-ui&quot;, &quot;Segoe UI&quot;, sans-serif;font-size:16px;font-weight:400;text-anchor:start;dominant-baseline:auto"/>
<text x="576" y="424" text-anchor="middle" dominant-baseline="central" style="fill:rgb(95, 94, 90);stroke:none;color:rgb(0, 0, 0);stroke-width:1px;stroke-linecap:butt;stroke-linejoin:miter;opacity:1;font-family:&quot;Anthropic Sans&quot;, -apple-system, &quot;system-ui&quot;, &quot;Segoe UI&quot;, sans-serif;font-size:12px;font-weight:400;text-anchor:middle;dominant-baseline:central">Any images</text>
</g>

<!-- Legend -->
<line x1="162" y1="456" x2="198" y2="456" stroke="var(--s)" stroke-width="1.5" style="fill:rgb(0, 0, 0);stroke:rgb(61, 61, 58);color:rgb(0, 0, 0);stroke-width:1.5px;stroke-linecap:butt;stroke-linejoin:miter;opacity:1;font-family:&quot;Anthropic Sans&quot;, -apple-system, &quot;system-ui&quot;, &quot;Segoe UI&quot;, sans-serif;font-size:16px;font-weight:400;text-anchor:start;dominant-baseline:auto"/>
<text x="202" y="460" text-anchor="start" style="fill:rgb(61, 61, 58);stroke:none;color:rgb(0, 0, 0);stroke-width:1px;stroke-linecap:butt;stroke-linejoin:miter;opacity:1;font-family:&quot;Anthropic Sans&quot;, -apple-system, &quot;system-ui&quot;, &quot;Segoe UI&quot;, sans-serif;font-size:12px;font-weight:400;text-anchor:start;dominant-baseline:auto">control</text>
<line x1="304" y1="456" x2="340" y2="456" stroke="var(--s)" stroke-width="1.5" stroke-dasharray="5 3" mask="url(#imagine-text-gaps-p9sqm9)" style="fill:rgb(0, 0, 0);stroke:rgb(61, 61, 58);color:rgb(0, 0, 0);stroke-width:1.5px;stroke-dasharray:5px, 3px;stroke-linecap:butt;stroke-linejoin:miter;opacity:1;font-family:&quot;Anthropic Sans&quot;, -apple-system, &quot;system-ui&quot;, &quot;Segoe UI&quot;, sans-serif;font-size:16px;font-weight:400;text-anchor:start;dominant-baseline:auto"/>
<text x="344" y="460" text-anchor="start" style="fill:rgb(61, 61, 58);stroke:none;color:rgb(0, 0, 0);stroke-width:1px;stroke-linecap:butt;stroke-linejoin:miter;opacity:1;font-family:&quot;Anthropic Sans&quot;, -apple-system, &quot;system-ui&quot;, &quot;Segoe UI&quot;, sans-serif;font-size:12px;font-weight:400;text-anchor:start;dominant-baseline:auto">status / events</text>
</svg>