<svg width="1693" height="512" viewBox="0 0 1693 512" fill="none" xmlns="http://www.w3.org/2000/svg">
<path d="M1495.91 124.487C1494.21 126.187 1494.11 386.287 1495.91 388.087C1497.61 389.787 1545.81 389.787 1547.51 388.087C1548.41 387.187 1548.71 375.887 1548.71 343.187C1548.71 309.387 1549.01 299.287 1550.01 298.487C1550.81 297.787 1565.91 297.287 1592.71 297.087C1631.21 296.687 1634.81 296.487 1641.81 294.587C1664.11 288.387 1679.01 274.487 1686.21 253.187C1693.71 231.287 1694.61 199.987 1688.61 175.787C1682.21 150.087 1665.81 132.987 1640.81 125.987C1633.41 123.887 1631.21 123.787 1565.21 123.487C1511.91 123.287 1496.91 123.487 1495.91 124.487ZM1629.71 172.787C1631.31 173.587 1633.71 175.787 1635.01 177.487C1645.31 191.287 1645.31 229.287 1635.01 243.087C1630.31 249.287 1630.61 249.287 1588.91 249.287C1560.81 249.287 1550.81 248.987 1549.91 248.087C1549.01 247.187 1548.71 237.387 1548.71 210.287C1548.71 183.187 1549.01 173.387 1549.91 172.487C1550.81 171.587 1560.81 171.287 1588.91 171.287C1620.61 171.287 1627.31 171.487 1629.71 172.787Z" fill="black"/>
<path d="M1328.21 124.387C1314.11 126.187 1306.81 129.887 1302.31 137.587C1299.41 142.487 1223.41 386.087 1224.11 387.987C1224.51 388.987 1230.31 389.287 1250.41 389.287C1264.61 389.287 1276.81 388.887 1277.51 388.387C1278.31 387.987 1283.51 372.687 1289.21 354.387C1294.81 336.187 1300.01 320.587 1300.71 319.787C1301.81 318.487 1308.21 318.287 1347.81 318.287H1393.71L1395.11 320.487C1395.81 321.787 1400.81 337.187 1406.21 354.787C1411.81 373.287 1416.51 387.287 1417.51 388.087C1419.41 389.587 1470.21 389.887 1471.21 388.387C1471.71 387.487 1400.61 154.887 1396.01 142.287C1393.61 135.587 1386.41 128.887 1379.61 126.887C1368.11 123.487 1344.51 122.387 1328.21 124.387ZM1350.51 173.987C1353.81 182.187 1377.81 262.887 1377.51 264.687C1377.21 266.787 1376.91 266.787 1347.81 267.087C1330.91 267.187 1317.91 266.887 1317.41 266.387C1316.41 265.387 1342.91 177.387 1345.31 173.487C1347.21 170.487 1349.21 170.687 1350.51 173.987Z" fill="black"/>
<path d="M1097.51 197.387C1079.51 199.487 1059.41 206.687 1048.21 215.187C1031.61 227.787 1020.11 246.287 1015.61 267.787C1011.61 286.587 1012.11 313.787 1016.81 333.287C1022.21 356.087 1036.11 371.787 1058.11 380.087C1077.61 387.387 1095.81 389.287 1147.81 389.287C1179.41 389.287 1186.71 388.987 1187.61 387.887C1188.41 386.987 1188.71 380.187 1188.51 365.687L1188.21 344.787L1137.21 344.187C1083.51 343.687 1083.21 343.587 1073.71 338.787C1063.41 333.487 1055.41 319.987 1059.91 315.487C1060.81 314.587 1078.01 314.287 1131.31 314.287C1192.01 314.287 1201.61 314.087 1202.71 312.787C1203.61 311.687 1203.81 304.587 1203.51 283.587C1202.91 252.287 1202.11 246.887 1195.11 233.187C1181.51 205.987 1143.71 192.087 1097.51 197.387ZM1133.91 238.687C1150.31 243.187 1159.71 251.787 1161.41 263.787C1162.41 271.787 1165.71 271.287 1110.31 271.287C1073.41 271.287 1060.81 270.987 1059.91 270.087C1056.71 266.887 1060.51 257.187 1067.01 251.887C1074.21 245.987 1086.71 240.487 1098.71 237.787C1106.81 235.987 1125.81 236.487 1133.91 238.687Z" fill="black"/>
<path d="M732.913 198.887C726.913 201.887 722.513 206.787 720.813 212.187C719.213 217.787 719.213 386.387 720.913 388.087C722.613 389.787 761.813 389.787 763.513 388.087C764.413 387.187 764.713 369.787 764.713 315.987C764.713 251.687 764.913 244.787 766.413 242.287C767.313 240.687 769.113 238.987 770.413 238.387C771.913 237.687 780.613 237.287 793.013 237.287C815.513 237.287 818.713 238.087 825.513 244.587C832.013 250.787 831.713 246.687 831.713 320.087C831.713 370.687 832.013 387.187 832.913 388.087C834.713 389.887 874.013 389.787 875.613 387.987C876.313 387.087 876.713 365.887 876.913 318.087C877.213 250.187 877.213 249.387 879.313 246.587C880.413 245.087 883.313 242.387 885.613 240.787L889.913 237.787H909.013C926.913 237.787 928.513 237.987 932.313 239.987C938.813 243.487 942.313 246.887 945.113 252.487L947.713 257.687V322.287C947.713 371.187 948.013 387.187 948.913 388.087C950.813 389.987 990.113 389.787 991.613 387.887C992.513 386.887 992.713 368.787 992.513 317.687L992.213 248.787L988.913 240.787C981.313 221.987 966.013 207.887 945.213 200.587L937.213 197.787H908.713H880.213L874.413 200.487C870.713 202.287 866.413 205.487 862.813 209.287C859.613 212.587 856.713 215.287 856.313 215.287C855.813 215.287 852.813 212.887 849.613 209.887C846.313 206.787 840.313 202.687 836.013 200.587L828.313 196.787L783.313 196.487L738.213 196.187L732.913 198.887Z" fill="black"/>
<path d="M531.913 197.487C531.013 198.387 530.713 204.487 530.713 218.787C530.713 233.087 531.013 239.187 531.913 240.087C532.813 240.987 545.813 241.287 584.213 241.287C633.113 241.287 635.313 241.387 638.413 243.287C642.513 245.687 645.713 251.987 645.713 257.387C645.713 260.987 645.113 262.187 641.413 265.787C638.913 268.287 635.613 270.487 633.213 271.187C630.613 271.887 616.613 272.287 593.613 272.287C553.913 272.287 551.513 272.587 543.713 278.787C529.813 289.987 522.213 309.187 522.413 333.287C522.413 342.787 522.913 347.687 524.613 353.787C529.613 372.287 538.413 384.587 548.813 387.687C553.413 389.087 563.013 389.287 621.313 389.287C677.913 389.287 688.613 389.087 689.613 387.887C690.513 386.787 690.713 369.187 690.413 317.087C690.013 238.987 690.213 241.487 682.213 224.787C675.213 210.187 663.413 200.187 649.913 197.387C642.113 195.787 533.513 195.887 531.913 197.487ZM645.213 331.287V345.787L609.713 346.087C575.513 346.287 574.113 346.187 570.913 344.287C566.513 341.587 563.313 334.487 564.013 328.687C564.513 323.987 567.813 318.587 571.113 317.287C572.213 316.787 589.413 316.487 609.213 316.587L645.213 316.787V331.287Z" fill="black"/>
<path d="M230.213 90.7874C168.713 100.787 117.313 144.187 97.8126 202.787C91.5126 221.687 90.2126 230.487 90.2126 255.287C90.2126 274.987 90.5126 279.087 92.5126 288.287C107.113 354.987 156.113 403.887 223.213 418.487C231.913 420.387 236.313 420.687 256.213 420.687C276.113 420.687 280.513 420.387 289.213 418.487C356.313 403.887 405.313 354.987 419.913 288.287C421.913 279.087 422.213 274.987 422.213 255.287C422.213 235.587 421.913 231.487 419.913 222.287C405.413 155.787 356.213 106.587 289.613 92.1874C277.013 89.3874 243.513 88.6874 230.213 90.7874ZM336.713 131.187C338.013 133.787 338.013 171.787 336.713 174.387C335.713 176.187 334.013 176.287 278.913 176.287H222.113L216.913 178.887C210.613 181.987 203.313 189.887 200.013 197.087L197.513 202.287L197.913 255.087C198.313 300.587 198.613 308.587 200.013 313.587C203.613 325.787 210.113 334.387 219.013 338.387C224.113 340.687 224.913 340.787 252.213 340.787C279.313 340.787 280.413 340.687 285.213 338.487C291.213 335.687 296.113 331.187 299.013 325.787C300.913 322.187 301.213 319.887 301.513 302.687C301.813 285.887 301.713 283.387 300.213 281.987C298.713 280.487 295.113 280.287 267.213 280.287C239.613 280.287 235.813 280.087 235.313 278.687C234.413 276.387 234.613 235.987 235.513 234.487C236.213 233.487 248.813 233.287 295.313 233.487L354.213 233.787L354.513 279.587C354.713 323.087 354.613 325.787 352.713 333.487C345.913 359.887 324.313 381.487 299.213 386.787C288.613 388.987 210.113 388.987 201.313 386.687C178.013 380.687 157.913 359.187 149.013 330.787L146.213 321.787V255.287V188.787L149.313 180.687C158.713 156.387 176.713 137.587 196.613 131.187C201.713 129.587 207.613 129.387 268.913 129.387C333.913 129.287 335.713 129.387 336.713 131.187Z" fill="black"/>
<path d="M309.513 10.9874C304.413 16.8874 298.313 23.7874 296.013 26.2874L291.813 30.7874L283.013 30.2874C265.613 29.2874 232.413 29.9874 222.413 31.5874C216.213 32.5874 211.713 32.8874 210.313 32.2874C209.013 31.7874 201.713 25.0874 194.013 17.1874L180.113 2.98743L150.613 15.7874C134.413 22.8874 120.813 28.9874 120.313 29.3874C119.713 29.8874 119.913 37.9874 120.713 49.5874C121.413 60.2874 121.613 69.8874 121.313 71.0874C120.913 72.2874 116.013 76.9874 110.313 81.6874C97.4126 92.2874 83.8126 106.687 74.0126 120.087C69.0126 126.987 65.7126 130.487 64.0126 130.887C62.6126 131.287 52.8126 131.387 42.2126 131.087L22.9126 130.587L11.2126 160.987C4.81259 177.687 -0.287411 191.887 0.0125893 192.687C0.312589 193.387 6.91259 199.587 14.7126 206.287C22.5126 212.987 29.2126 219.587 29.7126 220.887C30.3126 222.387 30.2126 227.387 29.6126 234.087C28.2126 246.987 29.1126 276.987 31.1126 290.087C32.0126 295.887 32.2126 300.387 31.7126 301.687C31.2126 302.987 24.5126 310.287 16.6126 317.987L2.41259 331.887L15.2126 361.387C22.3126 377.587 28.4126 391.187 28.8126 391.687C29.3126 392.287 37.4126 392.087 49.0126 391.287C59.7126 390.587 69.3126 390.387 70.5126 390.687C71.7126 391.087 76.4126 395.987 81.1126 401.687C91.7126 414.587 106.113 428.187 119.513 437.987C126.413 442.987 129.913 446.287 130.313 447.987C130.713 449.387 130.813 459.187 130.513 469.787L130.013 489.087L160.413 500.787C177.113 507.187 191.313 512.287 192.113 511.987C192.813 511.687 199.013 505.087 205.713 497.287C212.413 489.487 219.013 482.787 220.313 482.287C221.813 481.687 226.813 481.787 233.513 482.387C246.413 483.787 276.413 482.887 289.513 480.887C295.313 479.987 299.813 479.787 301.113 480.287C302.413 480.787 309.713 487.487 317.413 495.387L331.313 509.587L360.813 496.787C377.013 489.687 390.613 483.587 391.113 483.187C391.713 482.687 391.513 474.587 390.713 462.987C390.013 452.287 389.813 442.687 390.113 441.487C390.513 440.287 395.413 435.587 401.113 430.887C414.013 420.287 427.613 405.887 437.413 392.487C442.413 385.587 445.713 382.087 447.413 381.687C448.813 381.287 458.613 381.187 469.213 381.487L488.513 381.987L500.213 351.587C506.613 334.887 511.713 320.687 511.413 319.887C511.113 319.187 504.513 312.987 496.713 306.287C488.913 299.587 482.213 292.987 481.713 291.687C481.113 290.187 481.213 285.187 481.813 278.487C483.213 265.587 482.313 235.587 480.313 222.487C479.413 216.687 479.213 212.187 479.713 210.887C480.213 209.587 486.913 202.287 494.813 194.587L509.013 180.687L496.213 151.187C489.113 134.987 483.013 121.387 482.613 120.887C482.113 120.287 474.013 120.487 462.413 121.287C451.713 121.987 442.113 122.187 440.913 121.887C439.713 121.487 435.013 116.587 430.313 110.887C419.713 97.9874 405.313 84.3874 391.913 74.5874C385.013 69.5874 381.513 66.2874 381.113 64.5874C380.713 63.1874 380.613 53.3874 380.913 42.7874L381.413 23.4874L351.313 11.8874C334.713 5.48743 320.713 0.287433 320.013 0.287433C319.313 0.287433 314.613 5.08743 309.513 10.9874ZM283.613 81.7874C339.813 90.8874 388.213 126.587 414.113 178.187C421.413 192.587 427.313 211.287 430.413 229.187C432.613 242.187 432.613 270.387 430.413 283.387C423.713 322.787 406.113 356.387 378.113 383.287C351.213 409.087 320.213 424.687 282.813 430.987C269.813 433.187 241.613 433.187 228.613 430.987C191.213 424.687 160.213 409.087 133.313 383.287C105.313 356.387 87.7126 322.787 81.0126 283.387C78.8126 270.387 78.8126 242.187 81.0126 229.187C87.7126 189.787 105.313 156.187 133.313 129.287C163.913 99.9874 200.313 83.5874 243.713 79.8874C251.413 79.1874 274.413 80.3874 283.613 81.7874Z" fill="black"/>
</svg>
