<svg width="512" height="512" viewBox="0 0 512 512" fill="none" xmlns="http://www.w3.org/2000/svg">
<path d="M230.213 90.7874C168.713 100.787 117.313 144.187 97.8126 202.787C91.5126 221.687 90.2126 230.487 90.2126 255.287C90.2126 274.987 90.5126 279.087 92.5126 288.287C107.113 354.987 156.113 403.887 223.213 418.487C231.913 420.387 236.313 420.687 256.213 420.687C276.113 420.687 280.513 420.387 289.213 418.487C356.313 403.887 405.313 354.987 419.913 288.287C421.913 279.087 422.213 274.987 422.213 255.287C422.213 235.587 421.913 231.487 419.913 222.287C405.413 155.787 356.213 106.587 289.613 92.1874C277.013 89.3874 243.513 88.6874 230.213 90.7874ZM336.713 131.187C338.013 133.787 338.013 171.787 336.713 174.387C335.713 176.187 334.013 176.287 278.913 176.287H222.113L216.913 178.887C210.613 181.987 203.313 189.887 200.013 197.087L197.513 202.287L197.913 255.087C198.313 300.587 198.613 308.587 200.013 313.587C203.613 325.787 210.113 334.387 219.013 338.387C224.113 340.687 224.913 340.787 252.213 340.787C279.313 340.787 280.413 340.687 285.213 338.487C291.213 335.687 296.113 331.187 299.013 325.787C300.913 322.187 301.213 319.887 301.513 302.687C301.813 285.887 301.713 283.387 300.213 281.987C298.713 280.487 295.113 280.287 267.213 280.287C239.613 280.287 235.813 280.087 235.313 278.687C234.413 276.387 234.613 235.987 235.513 234.487C236.213 233.487 248.813 233.287 295.313 233.487L354.213 233.787L354.513 279.587C354.713 323.087 354.613 325.787 352.713 333.487C345.913 359.887 324.313 381.487 299.213 386.787C288.613 388.987 210.113 388.987 201.313 386.687C178.013 380.687 157.913 359.187 149.013 330.787L146.213 321.787V255.287V188.787L149.313 180.687C158.713 156.387 176.713 137.587 196.613 131.187C201.713 129.587 207.613 129.387 268.913 129.387C333.913 129.287 335.713 129.387 336.713 131.187Z" fill="white"/>
<path d="M309.513 10.9874C304.413 16.8874 298.313 23.7874 296.013 26.2874L291.813 30.7874L283.013 30.2874C265.613 29.2874 232.413 29.9874 222.413 31.5874C216.213 32.5874 211.713 32.8874 210.313 32.2874C209.013 31.7874 201.713 25.0874 194.013 17.1874L180.113 2.98743L150.613 15.7874C134.413 22.8874 120.813 28.9874 120.313 29.3874C119.713 29.8874 119.913 37.9874 120.713 49.5874C121.413 60.2874 121.613 69.8874 121.313 71.0874C120.913 72.2874 116.013 76.9874 110.313 81.6874C97.4126 92.2874 83.8126 106.687 74.0126 120.087C69.0126 126.987 65.7126 130.487 64.0126 130.887C62.6126 131.287 52.8126 131.387 42.2126 131.087L22.9126 130.587L11.2126 160.987C4.81259 177.687 -0.287411 191.887 0.0125893 192.687C0.312589 193.387 6.91259 199.587 14.7126 206.287C22.5126 212.987 29.2126 219.587 29.7126 220.887C30.3126 222.387 30.2126 227.387 29.6126 234.087C28.2126 246.987 29.1126 276.987 31.1126 290.087C32.0126 295.887 32.2126 300.387 31.7126 301.687C31.2126 302.987 24.5126 310.287 16.6126 317.987L2.41259 331.887L15.2126 361.387C22.3126 377.587 28.4126 391.187 28.8126 391.687C29.3126 392.287 37.4126 392.087 49.0126 391.287C59.7126 390.587 69.3126 390.387 70.5126 390.687C71.7126 391.087 76.4126 395.987 81.1126 401.687C91.7126 414.587 106.113 428.187 119.513 437.987C126.413 442.987 129.913 446.287 130.313 447.987C130.713 449.387 130.813 459.187 130.513 469.787L130.013 489.087L160.413 500.787C177.113 507.187 191.313 512.287 192.113 511.987C192.813 511.687 199.013 505.087 205.713 497.287C212.413 489.487 219.013 482.787 220.313 482.287C221.813 481.687 226.813 481.787 233.513 482.387C246.413 483.787 276.413 482.887 289.513 480.887C295.313 479.987 299.813 479.787 301.113 480.287C302.413 480.787 309.713 487.487 317.413 495.387L331.313 509.587L360.813 496.787C377.013 489.687 390.613 483.587 391.113 483.187C391.713 482.687 391.513 474.587 390.713 462.987C390.013 452.287 389.813 442.687 390.113 441.487C390.513 440.287 395.413 435.587 401.113 430.887C414.013 420.287 427.613 405.887 437.413 392.487C442.413 385.587 445.713 382.087 447.413 381.687C448.813 381.287 458.613 381.187 469.213 381.487L488.513 381.987L500.213 351.587C506.613 334.887 511.713 320.687 511.413 319.887C511.113 319.187 504.513 312.987 496.713 306.287C488.913 299.587 482.213 292.987 481.713 291.687C481.113 290.187 481.213 285.187 481.813 278.487C483.213 265.587 482.313 235.587 480.313 222.487C479.413 216.687 479.213 212.187 479.713 210.887C480.213 209.587 486.913 202.287 494.813 194.587L509.013 180.687L496.213 151.187C489.113 134.987 483.013 121.387 482.613 120.887C482.113 120.287 474.013 120.487 462.413 121.287C451.713 121.987 442.113 122.187 440.913 121.887C439.713 121.487 435.013 116.587 430.313 110.887C419.713 97.9874 405.313 84.3874 391.913 74.5874C385.013 69.5874 381.513 66.2874 381.113 64.5874C380.713 63.1874 380.613 53.3874 380.913 42.7874L381.413 23.4874L351.313 11.8874C334.713 5.48743 320.713 0.287433 320.013 0.287433C319.313 0.287433 314.613 5.08743 309.513 10.9874ZM283.613 81.7874C339.813 90.8874 388.213 126.587 414.113 178.187C421.413 192.587 427.313 211.287 430.413 229.187C432.613 242.187 432.613 270.387 430.413 283.387C423.713 322.787 406.113 356.387 378.113 383.287C351.213 409.087 320.213 424.687 282.813 430.987C269.813 433.187 241.613 433.187 228.613 430.987C191.213 424.687 160.213 409.087 133.313 383.287C105.313 356.387 87.7126 322.787 81.0126 283.387C78.8126 270.387 78.8126 242.187 81.0126 229.187C87.7126 189.787 105.313 156.187 133.313 129.287C163.913 99.9874 200.313 83.5874 243.713 79.8874C251.413 79.1874 274.413 80.3874 283.613 81.7874Z" fill="white"/>
</svg>
